<svg width="65" height="80" viewBox="0 0 65 80" fill="none" xmlns="http://www.w3.org/2000/svg">
<g id="copied-icon">
<path id="Vector 1" d="M25 63L32.5 76L39 63" stroke-width="3" class="copied-icon"/>
<g id="Inner Plugin Iframe">
<path id="Vector" d="M53.9651 57H29.9885C29.1456 57 28.4354 56.7109 27.8578 56.1328C27.2803 55.5547 26.9915 54.8438 26.9915 54V45H37.4812C38.449 45 39.3154 44.7188 40.0803 44.1562C40.8451 43.5938 41.3837 42.875 41.6959 42H49.4695C49.8754 42 50.2266 41.8516 50.5232 41.5547C50.8198 41.2578 50.9681 40.9063 50.9681 40.5C50.9681 40.0937 50.8198 39.7422 50.5232 39.4453C50.2266 39.1484 49.8754 39 49.4695 39H41.9768V33H49.4695C49.8754 33 50.2266 32.8516 50.5232 32.5547C50.8198 32.2578 50.9681 31.9063 50.9681 31.5C50.9681 31.0937 50.8198 30.7422 50.5232 30.4453C50.2266 30.1484 49.8754 30 49.4695 30H41.9768V24H53.9651C54.7768 24 55.4793 24.2969 56.0724 24.8906C56.6656 25.4844 56.9622 26.1875 56.9622 27V54C56.9622 54.8125 56.6734 55.5156 56.0959 56.1094C55.5183 56.7031 54.8081 57 53.9651 57ZM49.4695 48H34.4842C34.0783 48 33.7271 48.1484 33.4305 48.4453C33.1339 48.7422 32.9856 49.0937 32.9856 49.5C32.9856 49.9063 33.1339 50.2578 33.4305 50.5547C33.7271 50.8516 34.0783 51 34.4842 51H49.4695C49.8754 51 50.2266 50.8516 50.5232 50.5547C50.8198 50.2578 50.9681 49.9063 50.9681 49.5C50.9681 49.0937 50.8198 48.7422 50.5232 48.4453C50.2266 48.1484 49.8754 48 49.4695 48ZM35.9827 42H12.0061C11.1632 42 10.4529 41.7109 9.87537 41.1328C9.29781 40.5547 9.00903 39.8438 9.00903 39V12C9.00903 11.1875 9.29781 10.4844 9.87537 9.89062C10.4529 9.29687 11.1632 9 12.0061 9H35.9827C36.8256 9 37.5359 9.29687 38.1134 9.89062C38.691 10.4844 38.9798 11.1875 38.9798 12V39C38.9798 39.8438 38.6832 40.5547 38.09 41.1328C37.4968 41.7109 36.7944 42 35.9827 42ZM31.4871 15H16.5017C16.0959 15 15.7446 15.1484 15.4481 15.4453C15.1515 15.7422 15.0032 16.0937 15.0032 16.5C15.0032 16.9063 15.1515 17.2578 15.4481 17.5547C15.7446 17.8516 16.0959 18 16.5017 18H31.4871C31.8929 18 32.2442 17.8516 32.5407 17.5547C32.8373 17.2578 32.9856 16.9063 32.9856 16.5C32.9856 16.0937 32.8373 15.7422 32.5407 15.4453C32.2442 15.1484 31.8929 15 31.4871 15ZM31.4871 24H16.5017C16.0959 24 15.7446 24.1484 15.4481 24.4453C15.1515 24.7422 15.0032 25.0937 15.0032 25.5C15.0032 25.9063 15.1515 26.2578 15.4481 26.5547C15.7446 26.8516 16.0959 27 16.5017 27H31.4871C31.8929 27 32.2442 26.8516 32.5407 26.5547C32.8373 26.2578 32.9856 25.9063 32.9856 25.5C32.9856 25.0937 32.8373 24.7422 32.5407 24.4453C32.2442 24.1484 31.8929 24 31.4871 24ZM31.4871 33H16.5017C16.0959 33 15.7446 33.1484 15.4481 33.4453C15.1515 33.7422 15.0032 34.0937 15.0032 34.5C15.0032 34.9063 15.1515 35.2578 15.4481 35.5547C15.7446 35.8516 16.0959 36 16.5017 36H31.4871C31.8929 36 32.2442 35.8516 32.5407 35.5547C32.8373 35.2578 32.9856 34.9063 32.9856 34.5C32.9856 34.0937 32.8373 33.7422 32.5407 33.4453C32.2442 33.1484 31.8929 33 31.4871 33Z" class="copied-icon"/>
</g>
<rect id="Rectangle 6" x="1.5" y="1.5" width="62" height="62" rx="13.5" stroke-width="3" class="copied-icon"/>
</g>
</svg>
